HIERARCHY
ROOT Hips
{
	OFFSET 0.000000 95.729000 0.000000
	CHANNELS 6 Xposition Yposition Zposition Yrotation Xrotation Zrotation
	JOINT RightUpLeg
	{
		OFFSET -9.625000 -1.639000 0.000000
		CHANNELS 3 Yrotation Xrotation Zrotation
		JOINT RightLeg
		{
			OFFSET 0.000000 -41.481000 0.000000
			CHANNELS 3 Yrotation Xrotation Zrotation
			JOINT RightFoot
			{
				OFFSET 0.000000 -43.120000 0.000000
				CHANNELS 3 Yrotation Xrotation Zrotation
				End Site
				{
					OFFSET 0.000000 -7.850000 17.850000
				}
			}
		}
	}
	JOINT LeftUpLeg
	{
		OFFSET 9.625000 -1.639000 0.000000
		CHANNELS 3 Yrotation Xrotation Zrotation
		JOINT LeftLeg
		{
			OFFSET 0.000000 -43.120000 0.000000
			CHANNELS 3 Yrotation Xrotation Zrotation
			JOINT LeftFoot
			{
				OFFSET 0.000000 -43.120000 0.000000
				CHANNELS 3 Yrotation Xrotation Zrotation
				End Site
				{
					OFFSET 0.000000 -7.850000 17.850000
				}
			}
		}
	}
	JOINT Spine
	{
		OFFSET 0.000000 16.395000 0.000000
		CHANNELS 3 Yrotation Xrotation Zrotation
		JOINT Spine1
		{
			OFFSET 0.000000 10.023000 0.000000
			CHANNELS 3 Yrotation Xrotation Zrotation
			JOINT Spine2
			{
				OFFSET 0.000000 10.437000 0.000000
				CHANNELS 3 Yrotation Xrotation Zrotation
				JOINT Spine3
				{
					OFFSET 0.000000 10.023000 0.000000
					CHANNELS 3 Yrotation Xrotation Zrotation
					JOINT Neck
					{
						OFFSET 0.000000 10.713000 0.000000
						CHANNELS 3 Yrotation Xrotation Zrotation
						JOINT Head
						{
							OFFSET 0.000000 9.720000 0.000000
							CHANNELS 3 Yrotation Xrotation Zrotation
							End Site
							{
								OFFSET 0.000000 16.450000 0.000000
							}
						}
					}
					JOINT RightShoulder
					{
						OFFSET -3.275000 7.142000 0.000000
						CHANNELS 3 Yrotation Xrotation Zrotation
						JOINT RightArm
						{
							OFFSET -13.100000 0.000000 0.000000
							CHANNELS 3 Yrotation Xrotation Zrotation
							JOINT RightForeArm
							{
								OFFSET -27.250000 0.000000 0.000000
								CHANNELS 3 Yrotation Xrotation Zrotation
								JOINT RightHand
								{
									OFFSET -26.750000 0.000000 0.000000
									CHANNELS 3 Yrotation Xrotation Zrotation
									End Site
									{
										OFFSET -3.479000 0.532000 0.778000
									}
								}
							}
						}
					}
					JOINT LeftShoulder
					{
						OFFSET 3.275000 7.142000 0.000000
						CHANNELS 3 Yrotation Xrotation Zrotation
						JOINT LeftArm
						{
							OFFSET 13.100000 0.000000 0.000000
							CHANNELS 3 Yrotation Xrotation Zrotation
							JOINT LeftForeArm
							{
								OFFSET 27.250000 0.000000 0.000000
								CHANNELS 3 Yrotation Xrotation Zrotation
								JOINT LeftHand
								{
									OFFSET 26.750000 0.000000 0.000000
									CHANNELS 3 Yrotation Xrotation Zrotation
									End Site
									{
										OFFSET 3.479000 0.532000 0.778000
									}
								}
							}
						}
					}
				}
			}
		}
	}
}
MOTION
Frames: 18
Frame Time: 0.01
12.21 93.87 4.52 0.0 3.19 0.0 8.14 -15.0 -4.69 -0.0 29.82 -0.0 -9.03 -16.6 5.66 14.63 -22.02 3.98 0.0 33.6 0.0 5.3 -8.0 -0.14 0.96 -2.91 -1.54 0.25 -0.73 -0.38 0.42 -1.21 -0.64 0.57 0.64 0.28 0.58 0.64 0.28 11.64 10.91 6.2 23.76 -7.07 -8.06 49.93 -58.51 5.58 79.26 22.09 0.98 -28.66 21.2 -2.51 2.73 -0.38 -7.63 -27.71 5.38 -70.7 -5.07 -2.15 -1.12 -9.02 31.97 7.71
12.29 93.55 4.65 0.0 3.86 0.0 8.61 -16.71 -5.02 0.0 31.57 0.0 -8.9 -17.27 5.84 14.91 -23.31 3.69 -0.0 34.88 0.0 5.58 -8.57 -0.28 0.82 -2.62 -1.33 0.21 -0.66 -0.33 0.36 -1.09 -0.55 0.6 0.6 0.25 0.6 0.6 0.25 11.98 10.32 5.63 23.29 -7.0 -8.36 47.82 -58.96 7.06 77.53 22.45 0.11 -27.49 20.69 -3.18 2.26 -0.15 -8.12 -27.96 5.2 -70.2 -5.73 -2.24 -1.01 -8.82 32.01 7.83
12.22 92.93 4.73 0.0 4.73 0.0 8.7 -19.13 -5.7 0.0 34.57 0.0 -8.35 -18.74 6.54 13.87 -26.83 3.71 -0.0 39.69 -0.0 4.47 -6.84 -0.33 0.6 -2.27 -1.15 0.15 -0.57 -0.29 0.26 -0.95 -0.48 0.62 0.58 0.23 0.62 0.58 0.23 12.25 10.0 5.31 22.05 -6.43 -8.12 45.22 -59.75 9.41 77.04 22.41 -0.31 -26.56 20.38 -4.2 1.76 -0.08 -8.8 -28.47 4.98 -69.57 -5.94 -2.08 -0.73 -8.48 32.09 7.73
12.18 92.39 4.73 0.0 5.34 0.0 8.75 -21.02 -6.32 -0.0 37.13 -0.0 -7.98 -20.0 6.99 13.58 -28.93 3.47 -0.0 42.57 -0.0 3.97 -6.41 -0.41 0.41 -1.87 -1.04 0.1 -0.47 -0.26 0.18 -0.78 -0.43 0.61 0.57 0.22 0.62 0.57 0.22 12.09 9.79 5.0 20.8 -5.98 -7.71 44.59 -60.18 10.41 75.58 22.33 -0.82 -27.78 19.97 -5.35 1.18 -0.09 -9.44 -28.71 4.64 -68.97 -5.8 -2.13 -0.51 -8.4 32.05 7.53
12.19 91.57 4.67 0.0 6.21 0.0 8.64 -23.65 -6.63 -0.0 40.51 0.0 -7.36 -21.71 7.68 12.5 -32.01 3.83 -0.0 46.7 -0.0 3.81 -5.95 -0.75 0.23 -1.39 -0.55 0.06 -0.35 -0.14 0.1 -0.58 -0.23 0.6 0.55 0.19 0.6 0.55 0.19 11.66 9.59 4.33 19.79 -5.52 -7.09 36.79 -60.48 17.69 76.07 22.31 -0.6 -27.95 19.17 -7.12 0.21 -0.17 -10.14 -28.73 3.98 -68.29 -5.41 -2.16 -0.39 -8.51 31.88 7.25
12.15 90.77 4.53 0.0 7.13 0.0 8.87 -26.05 -7.04 -0.0 43.51 0.0 -6.93 -23.2 8.02 12.36 -34.77 3.78 0.0 50.23 0.0 3.95 -5.53 -0.63 0.1 -1.08 -0.17 0.03 -0.27 -0.04 0.04 -0.45 -0.07 0.59 0.54 0.15 0.59 0.54 0.15 11.42 9.55 3.65 19.77 -5.94 -7.3 30.06 -59.78 24.28 78.04 22.83 -0.31 -30.62 18.45 -7.87 -0.45 -0.33 -10.46 -28.25 2.93 -68.02 -5.09 -1.34 -0.24 -8.7 31.85 6.83
12.16 89.48 4.31 0.0 8.49 0.0 7.9 -29.85 -7.21 -0.0 48.0 0.0 -5.2 -25.0 8.97 11.06 -38.89 4.49 0.0 55.33 -0.0 4.14 -4.97 -0.77 -0.11 -0.73 0.64 -0.03 -0.18 0.16 -0.05 -0.31 0.26 0.6 0.52 0.09 0.6 0.53 0.09 11.33 9.48 2.59 18.05 -5.7 -5.77 27.45 -58.87 28.28 72.66 23.5 -0.84 -28.0 17.19 -10.74 -1.19 -0.42 -11.01 -29.35 3.05 -67.59 -6.12 -2.33 0.19 -8.64 31.88 6.92
12.16 88.25 4.12 0.0 9.83 0.0 7.51 -33.57 -7.48 -0.0 52.37 -0.0 -3.82 -26.16 9.81 10.6 -42.39 4.85 -0.0 59.43 0.0 4.55 -5.0 -0.74 0.03 -0.99 0.99 0.01 -0.25 0.25 0.01 -0.41 0.41 0.59 0.53 0.07 0.59 0.53 0.08 11.19 9.66 2.27 17.02 -5.0 -4.95 24.05 -58.04 32.53 70.67 24.9 -1.26 -28.02 16.33 -12.27 -2.24 0.5 -11.04 -29.68 2.68 -66.87 -7.35 -2.55 0.43 -8.27 31.83 7.54
12.28 86.51 3.78 0.0 11.67 0.0 7.41 -38.82 -7.94 -0.0 58.52 -0.0 -1.92 -26.69 10.74 10.18 -47.53 5.36 -0.0 65.13 -0.0 4.85 -3.46 0.21 -0.07 -0.09 1.98 -0.02 -0.02 0.5 -0.03 -0.04 0.83 0.61 0.48 0.01 0.61 0.48 0.01 11.27 8.94 0.96 16.5 -5.65 -5.76 19.54 -56.22 37.28 69.52 25.67 -2.3 -27.95 15.3 -13.61 -2.93 -0.17 -12.05 -29.5 1.29 -65.68 -8.78 -1.98 0.8 -7.71 31.83 8.3
12.44 84.78 3.5 0.0 13.13 0.0 5.98 -43.13 -7.72 -0.0 63.56 -0.0 0.62 -27.84 10.25 7.82 -51.64 7.1 0.0 69.87 -0.0 4.41 -2.96 0.25 -0.05 0.23 2.63 -0.01 0.06 0.66 -0.02 0.1 1.1 0.61 0.46 -0.02 0.61 0.47 -0.02 11.28 8.73 0.41 16.34 -6.49 -6.46 15.09 -53.89 41.64 68.78 26.16 -3.27 -27.59 14.48 -14.63 -3.1 -1.08 -12.63 -29.75 1.11 -65.09 -9.66 -2.19 0.95 -7.34 32.47 9.57
13.79 81.75 3.65 0.0 14.63 0.0 6.73 -50.59 -8.64 0.0 72.72 0.0 3.29 -26.74 11.27 5.27 -55.3 9.17 0.0 75.7 0.0 3.67 -3.1 0.39 -0.0 0.56 2.91 0.0 0.14 0.73 0.01 0.23 1.21 0.61 0.48 -0.03 0.62 0.48 -0.03 11.34 9.02 0.29 14.58 -4.58 -5.89 13.02 -53.38 44.37 68.35 26.77 -4.07 -27.17 13.43 -15.76 -5.23 1.05 -12.91 -30.32 0.88 -61.69 -13.43 -3.77 0.49 -6.37 32.34 12.77
14.78 79.42 3.82 0.0 15.87 0.0 6.93 -55.4 -8.67 -0.0 78.21 -0.0 4.26 -27.49 11.28 2.02 -59.31 12.14 0.0 81.1 0.0 2.98 -3.1 0.68 -0.04 1.3 3.39 -0.01 0.33 0.85 0.0 0.54 1.41 0.63 0.46 -0.05 0.63 0.46 -0.05 11.5 8.73 -0.17 14.05 -4.48 -6.61 9.87 -52.19 47.89 67.78 27.27 -4.65 -26.72 12.55 -16.7 -6.21 0.6 -13.39 -31.04 0.92 -59.6 -15.39 -4.26 0.29 -5.17 31.77 14.73
15.52 76.72 3.6 0.0 16.87 0.0 6.73 -59.98 -8.35 -0.0 84.26 -0.0 4.78 -28.17 11.6 -3.55 -63.47 17.79 -0.0 87.49 -0.0 1.72 -3.15 0.97 -0.03 1.97 3.85 0.0 0.49 0.96 0.02 0.82 1.6 0.63 0.45 -0.06 0.63 0.46 -0.06 11.59 8.71 -0.22 12.83 -4.02 -6.66 7.84 -49.86 50.95 66.41 28.16 -5.48 -25.91 11.37 -17.96 -6.94 -0.19 -13.41 -31.8 1.65 -58.08 -18.3 -4.4 0.34 -3.83 31.76 17.03
16.45 73.33 3.57 0.0 17.7 0.0 8.71 -65.64 -9.96 -180.0 88.23 -180.0 5.33 -27.72 12.38 -8.89 -67.07 23.58 -180.0 86.39 -180.0 0.61 -3.14 1.54 0.25 2.57 3.84 0.07 0.64 0.96 0.15 1.07 1.6 0.63 0.48 -0.06 0.63 0.48 -0.06 11.61 9.18 -0.2 11.92 -3.79 -6.66 5.82 -47.24 53.76 64.89 28.23 -5.63 -23.51 9.93 -20.51 -8.73 1.08 -13.24 -31.39 -0.28 -55.7 -20.8 -4.75 0.2 -2.27 31.54 19.59
17.03 70.66 3.22 0.0 17.91 0.0 9.23 -68.98 -10.28 -180.0 82.93 -180.0 6.11 -27.87 12.99 -16.61 -69.61 31.23 180.0 81.53 180.0 -0.37 -2.91 1.36 0.51 3.02 4.18 0.14 0.75 1.04 0.28 1.25 1.74 0.63 0.5 -0.08 0.63 0.51 -0.08 11.53 9.77 -0.54 11.51 -3.19 -6.66 4.91 -46.94 54.39 61.97 28.62 -4.57 -24.06 9.24 -20.26 -9.14 1.0 -13.33 -32.39 0.18 -54.0 -22.58 -6.13 -0.01 -1.45 31.39 20.84
17.54 67.18 2.87 0.0 18.02 0.0 13.01 -72.85 -13.35 180.0 76.31 180.0 6.37 -28.1 13.6 -26.92 -72.42 41.85 180.0 75.91 180.0 -2.0 -2.32 1.85 0.79 3.57 4.37 0.22 0.89 1.09 0.41 1.47 1.81 0.63 0.52 -0.09 0.63 0.52 -0.09 11.6 10.05 -0.76 11.42 -2.22 -6.48 3.07 -44.4 56.06 59.95 28.91 -4.34 -22.83 8.02 -21.12 -9.66 0.96 -13.12 -32.4 -0.84 -52.76 -23.93 -7.1 -0.43 -0.67 31.24 22.39
18.04 64.62 2.49 0.0 18.12 0.0 16.42 -75.78 -15.74 -180.0 71.53 -180.0 5.48 -27.65 13.42 -37.79 -73.78 52.44 180.0 71.64 180.0 -3.06 -2.18 1.89 1.1 3.83 4.41 0.3 0.96 1.1 0.54 1.58 1.82 0.65 0.52 -0.11 0.65 0.53 -0.11 11.89 10.3 -0.95 11.45 -1.53 -6.22 1.79 -40.58 58.05 58.94 29.41 -5.01 -21.71 7.08 -22.28 -9.81 0.78 -13.1 -32.48 -1.35 -52.12 -24.72 -8.66 -0.82 -0.35 31.32 23.47
18.73 61.38 1.92 0.0 17.83 0.0 19.05 -79.24 -17.41 -180.0 65.63 180.0 4.04 -26.71 12.51 -50.32 -73.87 64.4 -180.0 67.01 -180.0 -4.65 -1.92 1.64 1.37 4.39 4.51 0.37 1.1 1.12 0.67 1.81 1.86 0.68 0.52 -0.12 0.68 0.52 -0.12 12.47 10.31 -1.22 11.64 -0.64 -5.98 1.01 -38.56 59.36 55.87 30.56 -4.13 -20.13 5.87 -23.35 -10.27 0.89 -13.33 -32.46 -2.28 -51.04 -25.39 -10.24 -1.24 -0.0 31.94 24.03
